<svg xmlns="http://www.w3.org/2000/svg" viewBox="0 0 88.49 88.49" id="instagram">
  <g>
    <g>
      <path fill="#f9f9f9" d="M86.16 85.31q-20.61-20.05-41.4-40.76-21-21-41.4-41.72l82.9.39Z"></path>
      <rect width="84.49" height="84.49" x="2" y="2" fill="none" stroke="#000" stroke-miterlimit="10" stroke-width="4" rx="6.09"></rect>
      <path d="M56.67 29.15a2.76 2.76 0 1 0 2.75 2.75 2.75 2.75 0 0 0-2.75-2.75zm-12.23 3.53A11.57 11.57 0 1 0 56 44.24a11.58 11.58 0 0 0-11.56-11.56zm0 19a7.41 7.41 0 1 1 7.4-7.41 7.41 7.41 0 0 1-7.4 7.38z"></path>
      <path d="M53.61 67.72H34.87a14.12 14.12 0 0 1-14.1-14.1V34.87a14.12 14.12 0 0 1 14.1-14.1h18.74a14.12 14.12 0 0 1 14.11 14.1v18.75a14.12 14.12 0 0 1-14.11 14.1ZM34.87 25.19a9.69 9.69 0 0 0-9.68 9.68v18.75a9.69 9.69 0 0 0 9.68 9.68h18.74a9.69 9.69 0 0 0 9.69-9.68V34.87a9.69 9.69 0 0 0-9.69-9.68Z"></path>
    </g>
  </g>
</svg>
