<svg xmlns="http://www.w3.org/2000/svg" viewBox="0 0 88.49 88.49" id="twitter">
  <g>
    <g>
      <rect width="84.49" height="84.49" x="2" y="2" fill="none" stroke="#000" stroke-miterlimit="10" stroke-width="4" rx="6.09"></rect>
      <path d="M69.91 28.05a21.57 21.57 0 0 1-5.23 1.49c.84-.14 2.08-1.66 2.57-2.28A9.63 9.63 0 0 0 69 24.09c0-.09.08-.2 0-.27a.3.3 0 0 0-.28 0 27 27 0 0 1-6.21 2.38.42.42 0 0 1-.43-.12 5.64 5.64 0 0 0-.54-.55 10.92 10.92 0 0 0-3-1.84A10.44 10.44 0 0 0 53.9 23a11 11 0 0 0-4.37 1.24A11.19 11.19 0 0 0 46 27.08a10.83 10.83 0 0 0-2.11 4.22 11.55 11.55 0 0 0-.11 4.46c0 .25 0 .28-.21.25C35 34.74 28 31.69 22.24 25.15c-.25-.28-.38-.28-.59 0C19.14 28.94 20.36 35 23.5 38a16.41 16.41 0 0 0 1.31 1.16A10.88 10.88 0 0 1 20.69 38c-.25-.15-.37-.06-.39.22a6.35 6.35 0 0 0 .06 1.22 11 11 0 0 0 6.74 8.72 6.58 6.58 0 0 0 1.37.42 12.12 12.12 0 0 1-4 .12c-.29-.06-.4.09-.29.37 1.78 4.84 5.61 6.28 8.48 7.1.39.07.77.07 1.16.16 0 0-.05 0-.07.07-1 1.45-4.26 2.53-5.79 3.07a20.76 20.76 0 0 1-8.8 1.13c-.47-.07-.57-.07-.7 0s0 .19.13.31c.6.4 1.21.75 1.84 1.09a29.34 29.34 0 0 0 5.88 2.35c10.56 2.92 22.46.77 30.4-7.11 6.19-6.24 8.37-14.78 8.37-23.32 0-.34.4-.52.63-.7a20.6 20.6 0 0 0 4.14-4.3 1.32 1.32 0 0 0 .27-.83c0-.18 0-.09-.21-.04Z"></path>
    </g>
  </g>
</svg>
